<?xml version="1.0" encoding="UTF-8" standalone="no"?>
<!-- Created with Inkscape (http://www.inkscape.org/) -->

<svg
   xmlns:dc="http://purl.org/dc/elements/1.1/"
   xmlns:cc="http://creativecommons.org/ns#"
   xmlns:rdf="http://www.w3.org/1999/02/22-rdf-syntax-ns#"
   xmlns:svg="http://www.w3.org/2000/svg"
   xmlns="http://www.w3.org/2000/svg"
   xmlns:sodipodi="http://sodipodi.sourceforge.net/DTD/sodipodi-0.dtd"
   xmlns:inkscape="http://www.inkscape.org/namespaces/inkscape"
   width="319.53683"
   height="319.53683"
   viewBox="0 0 84.544119 84.544123"
   version="1.1"
   id="svg8"
   inkscape:version="0.92.4 (5da689c313, 2019-01-14)"
   sodipodi:docname="logo-sketch.svg"
   inkscape:export-filename="C:\Users\Carl\Documents\outyard.github.io\static\images\icon.png"
   inkscape:export-xdpi="307.64529"
   inkscape:export-ydpi="307.64529">
  <defs
     id="defs2" />
  <sodipodi:namedview
     id="base"
     pagecolor="#ffffff"
     bordercolor="#666666"
     borderopacity="1.0"
     inkscape:pageopacity="0.0"
     inkscape:pageshadow="2"
     inkscape:zoom="0.98994949"
     inkscape:cx="5.440304"
     inkscape:cy="231.10694"
     inkscape:document-units="mm"
     inkscape:current-layer="layer1"
     showgrid="false"
     units="px"
     inkscape:window-width="3840"
     inkscape:window-height="2066"
     inkscape:window-x="-11"
     inkscape:window-y="-11"
     inkscape:window-maximized="1"
     inkscape:object-paths="true"
     inkscape:snap-intersection-paths="true"
     inkscape:snap-smooth-nodes="true"
     inkscape:snap-bbox="true"
     inkscape:bbox-paths="true"
     inkscape:snap-bbox-edge-midpoints="true"
     inkscape:bbox-nodes="true"
     inkscape:snap-bbox-midpoints="true" />
  <metadata
     id="metadata5">
    <rdf:RDF>
      <cc:Work
         rdf:about="">
        <dc:format>image/svg+xml</dc:format>
        <dc:type
           rdf:resource="http://purl.org/dc/dcmitype/StillImage" />
        <dc:title />
      </cc:Work>
    </rdf:RDF>
  </metadata>
  <g
     inkscape:label="Layer 1"
     inkscape:groupmode="layer"
     id="layer1"
     transform="translate(-324.1174,-373.51477)">
    <rect
       style="fill:#000000;stroke:none;stroke-width:5.36120319;stroke-miterlimit:4;stroke-dasharray:none"
       id="rect1212"
       width="84.544121"
       height="84.544121"
       x="207.05334"
       y="373.51477" />
    <rect
       style="fill:#000000;stroke:none;stroke-width:2.47296095;stroke-miterlimit:4;stroke-dasharray:none"
       id="rect842"
       width="10.840377"
       height="70.559151"
       x="283.18375"
       y="191.56216" />
    <rect
       transform="rotate(90)"
       style="fill:#000000;stroke:none;stroke-width:1.5699929;stroke-miterlimit:4;stroke-dasharray:none"
       id="rect846"
       width="10.840377"
       height="28.438988"
       x="191.56216"
       y="-302.82339" />
    <rect
       y="79.681213"
       x="207.05334"
       height="70.559151"
       width="10.840377"
       id="rect885"
       style="fill:#000000;stroke:none;stroke-width:2.47296095;stroke-miterlimit:4;stroke-dasharray:none" />
    <rect
       y="79.681213"
       x="224.65196"
       height="70.559151"
       width="10.840377"
       id="rect887"
       style="fill:#000000;stroke:none;stroke-width:2.47296095;stroke-miterlimit:4;stroke-dasharray:none" />
    <rect
       transform="rotate(90)"
       style="fill:#000000;stroke:none;stroke-width:1.5699929;stroke-miterlimit:4;stroke-dasharray:none"
       id="rect889"
       width="10.840377"
       height="28.438988"
       x="79.681213"
       y="-235.49234" />
    <rect
       y="-235.49234"
       x="139.39998"
       height="28.438988"
       width="10.840377"
       id="rect891"
       style="fill:#000000;stroke:none;stroke-width:1.5699929;stroke-miterlimit:4;stroke-dasharray:none"
       transform="rotate(90)" />
    <rect
       style="fill:#000000;stroke:none;stroke-width:2.27507663;stroke-miterlimit:4;stroke-dasharray:none"
       id="rect893"
       width="10.840377"
       height="59.718773"
       x="242.25056"
       y="79.681213" />
    <rect
       style="fill:#000000;stroke:none;stroke-width:2.27507663;stroke-miterlimit:4;stroke-dasharray:none"
       id="rect895"
       width="10.840377"
       height="59.718773"
       x="259.84918"
       y="79.681213" />
    <rect
       transform="rotate(90)"
       style="fill:#000000;stroke:none;stroke-width:0.76534528;stroke-miterlimit:4;stroke-dasharray:none"
       id="rect897"
       width="10.840377"
       height="6.7582397"
       x="139.39998"
       y="-259.84918" />
    <rect
       y="79.681213"
       x="283.18375"
       height="70.559151"
       width="10.840377"
       id="rect899"
       style="fill:#000000;stroke:none;stroke-width:2.47296095;stroke-miterlimit:4;stroke-dasharray:none" />
    <rect
       y="-302.82339"
       x="79.681213"
       height="28.438988"
       width="10.840377"
       id="rect901"
       style="fill:#000000;stroke:none;stroke-width:1.5699929;stroke-miterlimit:4;stroke-dasharray:none"
       transform="rotate(90)" />
    <rect
       y="79.681213"
       x="306.92978"
       height="31.655474"
       width="10.840377"
       id="rect903"
       style="fill:#000000;stroke:none;stroke-width:1.65639913;stroke-miterlimit:4;stroke-dasharray:none" />
    <rect
       y="79.681213"
       x="324.52841"
       height="31.655474"
       width="10.840377"
       id="rect905"
       style="fill:#000000;stroke:none;stroke-width:1.65639913;stroke-miterlimit:4;stroke-dasharray:none" />
    <rect
       style="fill:#000000;stroke:none;stroke-width:1.83626735;stroke-miterlimit:4;stroke-dasharray:none"
       id="rect907"
       width="10.840377"
       height="38.903683"
       x="315.7291"
       y="111.33669" />
    <rect
       transform="scale(1,-1)"
       style="fill:#000000;stroke:none;stroke-width:2.47296095;stroke-miterlimit:4;stroke-dasharray:none"
       id="rect909"
       width="10.840377"
       height="70.559151"
       x="340.87302"
       y="-150.24036" />
    <rect
       transform="scale(1,-1)"
       style="fill:#000000;stroke:none;stroke-width:2.47296095;stroke-miterlimit:4;stroke-dasharray:none"
       id="rect911"
       width="10.840377"
       height="70.559151"
       x="358.47165"
       y="-150.24036" />
    <rect
       transform="matrix(0,-1,-1,0,0,0)"
       style="fill:#000000;stroke:none;stroke-width:1.5699929;stroke-miterlimit:4;stroke-dasharray:none"
       id="rect913"
       width="10.840377"
       height="28.438988"
       x="-122.17706"
       y="-369.31201" />
    <rect
       y="-369.31201"
       x="-90.521591"
       height="28.438988"
       width="10.840377"
       id="rect915"
       style="fill:#000000;stroke:none;stroke-width:1.5699929;stroke-miterlimit:4;stroke-dasharray:none"
       transform="matrix(0,-1,-1,0,0,0)" />
    <rect
       y="-150.24036"
       x="374.79639"
       height="70.559151"
       width="10.840377"
       id="rect917"
       style="fill:#000000;stroke:none;stroke-width:2.47296095;stroke-miterlimit:4;stroke-dasharray:none"
       transform="scale(1,-1)" />
    <rect
       y="-150.24036"
       x="392.39502"
       height="28.063297"
       width="10.840377"
       id="rect919"
       style="fill:#000000;stroke:none;stroke-width:1.55958819;stroke-miterlimit:4;stroke-dasharray:none"
       transform="scale(1,-1)" />
    <rect
       y="-392.39502"
       x="-122.17706"
       height="17.59861"
       width="10.840377"
       id="rect921"
       style="fill:#000000;stroke:none;stroke-width:1.23503649;stroke-miterlimit:4;stroke-dasharray:none"
       transform="matrix(0,-1,-1,0,0,0)" />
    <rect
       transform="matrix(0,-1,-1,0,0,0)"
       style="fill:#000000;stroke:none;stroke-width:1.5699929;stroke-miterlimit:4;stroke-dasharray:none"
       id="rect923"
       width="10.840377"
       height="28.438988"
       x="-90.521591"
       y="-403.23538" />
    <rect
       transform="scale(1,-1)"
       style="fill:#000000;stroke:none;stroke-width:1.65639925;stroke-miterlimit:4;stroke-dasharray:none"
       id="rect925"
       width="10.840377"
       height="31.655478"
       x="392.39502"
       y="-111.33669" />
    <rect
       style="fill:#000000;stroke:none;stroke-width:2.47296095;stroke-miterlimit:4;stroke-dasharray:none"
       id="rect927"
       width="10.840377"
       height="70.559151"
       x="408.79816"
       y="79.681213" />
    <rect
       style="fill:#000000;stroke:none;stroke-width:2.05825448;stroke-miterlimit:4;stroke-dasharray:none"
       id="rect929"
       width="10.840377"
       height="48.878395"
       x="426.39676"
       y="90.521591" />
    <rect
       y="-426.39676"
       x="79.681213"
       height="17.59861"
       width="10.840377"
       id="rect931"
       style="fill:#000000;stroke:none;stroke-width:1.23503649;stroke-miterlimit:4;stroke-dasharray:none"
       transform="rotate(90)" />
    <path
       id="path933"
       d="m 426.18132,139.39998 v 10.84038 h -17.38318 v -10.84038 z"
       style="fill:#000000;stroke:none;stroke-width:1.22745419;stroke-miterlimit:4;stroke-dasharray:none"
       inkscape:connector-curvature="0" />
    <rect
       style="fill:#000000;stroke:none;stroke-width:2.05825448;stroke-miterlimit:4;stroke-dasharray:none"
       id="rect815"
       width="10.840377"
       height="48.878395"
       x="207.05334"
       y="202.40254" />
    <rect
       style="fill:#000000;stroke:none;stroke-width:2.05825448;stroke-miterlimit:4;stroke-dasharray:none"
       id="rect819"
       width="10.840377"
       height="48.878395"
       x="224.65196"
       y="202.40254" />
    <rect
       y="-224.65196"
       x="191.56216"
       height="6.7582455"
       width="10.840377"
       id="rect821"
       style="fill:#000000;stroke:none;stroke-width:0.76534563;stroke-miterlimit:4;stroke-dasharray:none"
       transform="rotate(90)" />
    <rect
       transform="rotate(90)"
       style="fill:#000000;stroke:none;stroke-width:0.76534486;stroke-miterlimit:4;stroke-dasharray:none"
       id="rect823"
       width="10.840377"
       height="6.7582321"
       x="251.28093"
       y="-224.65196" />
    <path
       style="fill:#000000;stroke:none;stroke-width:0.68540627;stroke-miterlimit:4;stroke-dasharray:none"
       d="m 217.89372,191.56216 v 10.84038 h -5.42019 v -10.84038 z"
       id="rect937"
       inkscape:connector-curvature="0" />
    <rect
       y="191.56216"
       x="242.25056"
       height="59.718773"
       width="10.840377"
       id="rect831"
       style="fill:#000000;stroke:none;stroke-width:2.27507663;stroke-miterlimit:4;stroke-dasharray:none" />
    <rect
       y="191.56216"
       x="259.84918"
       height="59.718773"
       width="10.840377"
       id="rect833"
       style="fill:#000000;stroke:none;stroke-width:2.27507663;stroke-miterlimit:4;stroke-dasharray:none" />
    <rect
       y="-259.84918"
       x="251.28093"
       height="6.7582397"
       width="10.840377"
       id="rect837"
       style="fill:#000000;stroke:none;stroke-width:0.76534528;stroke-miterlimit:4;stroke-dasharray:none"
       transform="rotate(90)" />
    <path
       style="fill:#000000;stroke:none;stroke-width:1.65639913;stroke-miterlimit:4;stroke-dasharray:none"
       d="m 306.51825,191.56216 h 10.84038 v 31.65548 h -10.84038 z"
       id="rect848"
       inkscape:connector-curvature="0" />
    <path
       style="fill:#000000;stroke:none;stroke-width:1.65639913;stroke-miterlimit:4;stroke-dasharray:none"
       d="m 324.11688,191.56216 h 10.84038 v 31.65548 h -10.84038 z"
       id="rect850"
       inkscape:connector-curvature="0" />
    <rect
       y="223.21764"
       x="315.31757"
       height="38.903683"
       width="10.840377"
       id="rect854"
       style="fill:#000000;stroke:none;stroke-width:1.83626735;stroke-miterlimit:4;stroke-dasharray:none" />
    <rect
       y="-262.12131"
       x="340.65714"
       height="59.718773"
       width="10.840377"
       id="rect856"
       style="fill:#000000;stroke:none;stroke-width:2.27507663;stroke-miterlimit:4;stroke-dasharray:none"
       transform="scale(1,-1)" />
    <rect
       y="-262.12131"
       x="358.25577"
       height="59.718773"
       width="10.840377"
       id="rect858"
       style="fill:#000000;stroke:none;stroke-width:2.27507663;stroke-miterlimit:4;stroke-dasharray:none"
       transform="scale(1,-1)" />
    <rect
       y="-369.09613"
       x="-234.05801"
       height="28.438988"
       width="10.840377"
       id="rect860"
       style="fill:#000000;stroke:none;stroke-width:1.5699929;stroke-miterlimit:4;stroke-dasharray:none"
       transform="matrix(0,-1,-1,0,0,0)" />
    <rect
       transform="matrix(0,-1,-1,0,0,0)"
       style="fill:#000000;stroke:none;stroke-width:0.76534724;stroke-miterlimit:4;stroke-dasharray:none"
       id="rect864"
       width="10.840377"
       height="6.7582741"
       x="-202.40254"
       y="-358.25577" />
    <rect
       transform="scale(1,-1)"
       style="fill:#000000;stroke:none;stroke-width:2.47296095;stroke-miterlimit:4;stroke-dasharray:none"
       id="rect866"
       width="10.840377"
       height="70.559151"
       x="375.85434"
       y="-262.12131" />
    <rect
       transform="scale(1,-1)"
       style="fill:#000000;stroke:none;stroke-width:1.55958819;stroke-miterlimit:4;stroke-dasharray:none"
       id="rect868"
       width="10.840377"
       height="28.063297"
       x="393.45297"
       y="-262.12131" />
    <rect
       transform="matrix(0,-1,-1,0,0,0)"
       style="fill:#000000;stroke:none;stroke-width:1.23503649;stroke-miterlimit:4;stroke-dasharray:none"
       id="rect870"
       width="10.840377"
       height="17.59861"
       x="-234.05801"
       y="-393.45297" />
    <path
       style="fill:#000000;stroke:none;stroke-width:1.23503745;stroke-miterlimit:4;stroke-dasharray:none"
       d="m 393.45298,202.40254 v -10.84037 h -17.59863 v 10.84037 z"
       id="rect872"
       inkscape:connector-curvature="0" />
    <path
       style="fill:#000000;stroke:none;stroke-width:1.34316623;stroke-miterlimit:4;stroke-dasharray:none"
       d="m 393.45298,223.21764 h 10.84038 v -20.8151 h -10.84038 z"
       id="rect874"
       inkscape:connector-curvature="0" />
    <path
       inkscape:connector-curvature="0"
       id="rect876"
       d="m 411.05159,191.56216 h 10.84037 v 70.55916 h -10.84037 z"
       style="fill:#000000;stroke:none;stroke-width:2.47296095;stroke-miterlimit:4;stroke-dasharray:none" />
    <path
       inkscape:connector-curvature="0"
       id="rect878"
       d="m 428.65019,202.40254 h 10.84038 v 48.8784 h -10.84038 z"
       style="fill:#000000;stroke:none;stroke-width:2.05825448;stroke-miterlimit:4;stroke-dasharray:none" />
    <path
       inkscape:connector-curvature="0"
       id="rect880"
       d="m 428.65019,191.56216 v 10.84038 h -17.59861 v -10.84038 z"
       style="fill:#000000;stroke:none;stroke-width:1.23503649;stroke-miterlimit:4;stroke-dasharray:none" />
    <path
       style="fill:#000000;stroke:none;stroke-width:1.23503697;stroke-miterlimit:4;stroke-dasharray:none"
       d="m 428.65019,251.28093 v 10.84038 h -17.59862 v -10.84038 z"
       id="rect882"
       inkscape:connector-curvature="0" />
    <path
       inkscape:connector-curvature="0"
       id="path1080"
       d="m 230.07215,191.56216 v 10.84038 h -5.42019 v -10.84038 z"
       style="fill:#000000;stroke:none;stroke-width:0.68540627;stroke-miterlimit:4;stroke-dasharray:none" />
    <path
       inkscape:connector-curvature="0"
       id="path1082"
       d="m 217.89372,251.28094 v 10.84038 h -5.42019 v -10.84038 z"
       style="fill:#000000;stroke:none;stroke-width:0.68540627;stroke-miterlimit:4;stroke-dasharray:none" />
    <path
       style="fill:#000000;stroke:none;stroke-width:0.68540627;stroke-miterlimit:4;stroke-dasharray:none"
       d="m 230.07215,251.28094 v 10.84038 h -5.42019 v -10.84038 z"
       id="path1084"
       inkscape:connector-curvature="0" />
    <path
       style="fill:#000000;stroke:none;stroke-width:0.68540627;stroke-miterlimit:4;stroke-dasharray:none"
       d="m 253.09094,251.28094 v 10.84038 h -5.42019 v -10.84038 z"
       id="path1086"
       inkscape:connector-curvature="0" />
    <path
       inkscape:connector-curvature="0"
       id="path1088"
       d="m 265.26937,251.28094 v 10.84038 h -5.42019 v -10.84038 z"
       style="fill:#000000;stroke:none;stroke-width:0.68540627;stroke-miterlimit:4;stroke-dasharray:none" />
    <path
       inkscape:connector-curvature="0"
       id="path1090"
       d="m 317.35863,223.21764 v 10.84038 h -5.42019 v -10.84038 z"
       style="fill:#000000;stroke:none;stroke-width:0.68540627;stroke-miterlimit:4;stroke-dasharray:none" />
    <path
       style="fill:#000000;stroke:none;stroke-width:0.68540627;stroke-miterlimit:4;stroke-dasharray:none"
       d="m 329.53707,223.21764 v 10.84038 h -5.42019 v -10.84038 z"
       id="path1092"
       inkscape:connector-curvature="0" />
    <path
       style="fill:#000000;stroke:none;stroke-width:0.68540627;stroke-miterlimit:4;stroke-dasharray:none"
       d="m 351.49749,191.56216 v 10.84038 h -5.42019 v -10.84038 z"
       id="path1094"
       inkscape:connector-curvature="0" />
    <path
       inkscape:connector-curvature="0"
       id="path1096"
       d="m 363.67592,191.56216 v 10.84038 h -5.42019 v -10.84038 z"
       style="fill:#000000;stroke:none;stroke-width:0.68540627;stroke-miterlimit:4;stroke-dasharray:none" />
    <path
       inkscape:connector-curvature="0"
       id="path1098"
       d="m 398.87317,191.56216 v 10.84038 h -5.42019 v -10.84038 z"
       style="fill:#000000;stroke:none;stroke-width:0.68540627;stroke-miterlimit:4;stroke-dasharray:none" />
    <path
       style="fill:#000000;stroke:none;stroke-width:0.68540627;stroke-miterlimit:4;stroke-dasharray:none"
       d="m 398.87316,223.21764 v 10.84038 h -5.42019 v -10.84038 z"
       id="path1100"
       inkscape:connector-curvature="0" />
    <path
       style="fill:#000000;stroke:none;stroke-width:0.68540627;stroke-miterlimit:4;stroke-dasharray:none"
       d="m 434.07038,191.56216 v 10.84038 h -5.42019 v -10.84038 z"
       id="path1102"
       inkscape:connector-curvature="0" />
    <path
       inkscape:connector-curvature="0"
       id="path1104"
       d="m 434.07038,251.28093 v 10.84038 h -5.42019 v -10.84038 z"
       style="fill:#000000;stroke:none;stroke-width:0.68540627;stroke-miterlimit:4;stroke-dasharray:none" />
    <rect
       y="276.22882"
       x="283.18375"
       height="70.559151"
       width="10.840377"
       id="rect1110"
       style="fill:#000000;stroke:none;stroke-width:2.47296095;stroke-miterlimit:4;stroke-dasharray:none" />
    <rect
       y="-302.82339"
       x="276.22882"
       height="28.438988"
       width="10.840377"
       id="rect1112"
       style="fill:#000000;stroke:none;stroke-width:1.5699929;stroke-miterlimit:4;stroke-dasharray:none"
       transform="rotate(90)" />
    <path
       style="fill:#000000;stroke:none;stroke-width:7.77922964;stroke-miterlimit:4;stroke-dasharray:none"
       d="m 20.486328,320 v 40.9707 H 0 v 184.73828 h 20.486328 v 40.97071 H 40.970703 66.513672 87 v -40.97071 h 20.48633 V 360.9707 H 87 V 320 H 66.513672 40.970703 Z m 20.484375,40.9707 H 66.513672 V 545.70898 H 40.970703 Z"
       transform="matrix(0.26458333,0,0,0.26458333,207.05334,191.56216)"
       id="rect1114"
       inkscape:connector-curvature="0" />
    <path
       style="fill:#000000;stroke:none;stroke-width:8.59871483;stroke-miterlimit:4;stroke-dasharray:none"
       d="m 133.0293,320 v 225.70898 h 20.48437 v 40.97071 H 174 199.54297 220.0293 v -40.97071 h 20.48632 V 320 H 199.54297 V 545.70898 H 174 V 320 Z"
       transform="matrix(0.26458333,0,0,0.26458333,207.05334,191.56216)"
       id="rect1124"
       inkscape:connector-curvature="0" />
    <path
       style="fill:#000000;stroke:none;stroke-width:6.26040602;stroke-miterlimit:4;stroke-dasharray:none"
       d="m 375.92969,320 v 119.64258 h 20.48633 v 40.97265 h 12.77148 v 106.06446 h 40.9707 V 480.61523 h 12.77149 v -40.97265 h 20.48633 V 320 H 442.44531 V 439.64258 H 416.90234 V 320 Z"
       transform="matrix(0.26458333,0,0,0.26458333,207.05334,191.56216)"
       id="path1130"
       inkscape:connector-curvature="0" />
    <path
       style="fill:#000000;stroke:none;stroke-width:8.59871483;stroke-miterlimit:4;stroke-dasharray:none"
       d="m 525.44531,320 v 40.9707 h -20.48633 v 78.67188 40.9707 106.06641 h 40.97266 V 480.61328 h 25.54297 v 106.06641 h 40.9707 V 360.9707 H 591.95898 V 320 h -20.48437 -25.54492 z m 20.48633,40.9707 h 25.54297 v 78.67188 h -25.54297 z"
       transform="matrix(0.26458333,0,0,0.26458333,207.05334,191.56216)"
       id="rect1136"
       inkscape:connector-curvature="0" />
    <path
       style="fill:#000000;stroke:none;stroke-width:9.34662437;stroke-miterlimit:4;stroke-dasharray:none"
       d="m 637.98828,320 v 40.9707 78.67188 40.9707 106.06641 h 40.9707 V 480.61328 h 25.54297 v 0.002 106.06446 h 40.97266 V 480.61328 h -20.48633 v -40.9707 h 20.48633 V 360.9707 H 724.98828 V 320 h -20.48633 -25.54297 z m 40.9707,40.9707 h 25.54297 v 78.67188 h -25.54297 z"
       transform="matrix(0.26458333,0,0,0.26458333,207.05334,191.56216)"
       id="rect1144"
       inkscape:connector-curvature="0" />
    <path
       style="fill:#000000;stroke:none;stroke-width:9.34662437;stroke-miterlimit:4;stroke-dasharray:none"
       d="m 771.01758,320 v 40.9707 184.73828 40.97071 h 40.9707 25.54297 20.48633 v -40.97071 h 20.48437 V 360.9707 H 858.01758 V 320 h -20.48633 -25.54297 z m 40.9707,40.9707 h 25.54297 v 184.73828 h -25.54297 z"
       transform="matrix(0.26458333,0,0,0.26458333,207.05334,191.56216)"
       id="path1154"
       inkscape:connector-curvature="0" />
    <g
       id="g1216"
       style="fill:#ffffff"
       transform="translate(10.983004,8.4615448)">
      <path
         style="fill:#ffffff;stroke:none;stroke-width:2.05825448;stroke-miterlimit:4;stroke-dasharray:none"
         d="m 212.47368,372.04579 v 10.84016 h -5.42034 v 48.87867 h 5.42034 v 10.84017 h 5.41983 6.75824 5.42034 v -10.84017 h 5.42034 v -48.87867 h -5.42034 v -10.84016 h -5.42034 -6.75824 z m 5.41983,10.84016 h 6.75824 v 48.87867 h -6.75824 z"
         id="path1198"
         inkscape:connector-curvature="0" />
      <path
         style="fill:#ffffff;stroke:none;stroke-width:1.65639901;stroke-miterlimit:4;stroke-dasharray:none"
         d="m 241.19234,372.04579 v 31.65543 h 5.42034 v 10.84068 h 3.37912 v 28.06289 h 10.84017 V 414.5419 h 3.37912 v -10.84068 h 5.42034 v -31.65543 h -10.84017 v 31.65543 h -6.75824 v -31.65543 z"
         id="path1202"
         inkscape:connector-curvature="0" />
    </g>
    <rect
       y="373.51477"
       x="324.1174"
       height="84.544121"
       width="84.544121"
       id="rect2419"
       style="fill:#2b46ff;fill-opacity:1;stroke:none;stroke-width:5.36120319;stroke-miterlimit:4;stroke-dasharray:none" />
    <g
       transform="translate(128.04706,8.4615448)"
       style="fill:#ffffff"
       id="g2425">
      <path
         inkscape:connector-curvature="0"
         id="path2421"
         d="m 212.47368,372.04579 v 10.84016 h -5.42034 v 48.87867 h 5.42034 v 10.84017 h 5.41983 6.75824 5.42034 v -10.84017 h 5.42034 v -48.87867 h -5.42034 v -10.84016 h -5.42034 -6.75824 z m 5.41983,10.84016 h 6.75824 v 48.87867 h -6.75824 z"
         style="fill:#ffffff;stroke:none;stroke-width:2.05825448;stroke-miterlimit:4;stroke-dasharray:none" />
      <path
         inkscape:connector-curvature="0"
         id="path2423"
         d="m 241.19234,372.04579 v 31.65543 h 5.42034 v 10.84068 h 3.37912 v 28.06289 h 10.84017 V 414.5419 h 3.37912 v -10.84068 h 5.42034 v -31.65543 h -10.84017 v 31.65543 h -6.75824 v -31.65543 z"
         style="fill:#ffffff;stroke:none;stroke-width:1.65639901;stroke-miterlimit:4;stroke-dasharray:none" />
    </g>
  </g>
</svg>
