<?xml version="1.0" encoding="UTF-8" standalone="no"?>
<!-- Created with Inkscape (http://www.inkscape.org/) -->

<svg
   xmlns:dc="http://purl.org/dc/elements/1.1/"
   xmlns:cc="http://creativecommons.org/ns#"
   xmlns:rdf="http://www.w3.org/1999/02/22-rdf-syntax-ns#"
   xmlns:svg="http://www.w3.org/2000/svg"
   xmlns="http://www.w3.org/2000/svg"
   xmlns:sodipodi="http://sodipodi.sourceforge.net/DTD/sodipodi-0.dtd"
   xmlns:inkscape="http://www.inkscape.org/namespaces/inkscape"
   width="878.50195"
   height="266.68027"
   viewBox="0 0 232.43697 70.559156"
   version="1.1"
   id="svg8"
   inkscape:version="0.92.3 (2405546, 2018-03-11)"
   sodipodi:docname="logo-gray.svg"
   inkscape:export-filename="C:\Users\Carl\Documents\outyard.github.io\static\images\icon.png"
   inkscape:export-xdpi="307.64529"
   inkscape:export-ydpi="307.64529">
  <defs
     id="defs2" />
  <sodipodi:namedview
     id="base"
     pagecolor="#ffffff"
     bordercolor="#666666"
     borderopacity="1.0"
     inkscape:pageopacity="0.0"
     inkscape:pageshadow="2"
     inkscape:zoom="0.98994949"
     inkscape:cx="-337.50643"
     inkscape:cy="59.052956"
     inkscape:document-units="mm"
     inkscape:current-layer="layer1"
     showgrid="false"
     units="px"
     inkscape:window-width="1920"
     inkscape:window-height="1001"
     inkscape:window-x="-9"
     inkscape:window-y="-9"
     inkscape:window-maximized="1"
     inkscape:object-paths="true"
     inkscape:snap-intersection-paths="true"
     inkscape:snap-smooth-nodes="true"
     inkscape:snap-bbox="true"
     inkscape:bbox-paths="true"
     inkscape:snap-bbox-edge-midpoints="true"
     inkscape:bbox-nodes="true"
     inkscape:snap-bbox-midpoints="true" />
  <metadata
     id="metadata5">
    <rdf:RDF>
      <cc:Work
         rdf:about="">
        <dc:format>image/svg+xml</dc:format>
        <dc:type
           rdf:resource="http://purl.org/dc/dcmitype/StillImage" />
        <dc:title></dc:title>
      </cc:Work>
    </rdf:RDF>
  </metadata>
  <g
     inkscape:label="Layer 1"
     inkscape:groupmode="layer"
     id="layer1"
     transform="translate(-501.04982,-276.22882)">
    <rect
       style="fill:#888888;stroke:none;stroke-width:2.47296095;stroke-miterlimit:4;stroke-dasharray:none;fill-opacity:1"
       id="rect977"
       width="10.840377"
       height="70.559151"
       x="577.18024"
       y="276.22882" />
    <rect
       transform="rotate(90)"
       style="fill:#888888;stroke:none;stroke-width:1.5699929;stroke-miterlimit:4;stroke-dasharray:none;fill-opacity:1"
       id="rect979"
       width="10.840377"
       height="28.438988"
       x="276.22882"
       y="-596.81989" />
    <path
       inkscape:connector-curvature="0"
       id="path981"
       d="m 506.47016,276.22883 v 10.84016 h -5.42034 v 48.87867 h 5.42034 v 10.84017 h 5.41983 6.75824 5.42034 v -10.84017 h 5.42034 v -48.87867 h -5.42034 v -10.84016 h -5.42034 -6.75824 z m 5.41983,10.84016 h 6.75824 v 48.87867 h -6.75824 z"
       style="fill:#888888;stroke:none;stroke-width:2.05825448;stroke-miterlimit:4;stroke-dasharray:none;fill-opacity:1" />
    <path
       inkscape:connector-curvature="0"
       id="path983"
       d="m 536.24716,276.22883 v 59.71883 h 5.41982 v 10.84017 h 5.42034 6.75824 5.42035 v -10.84017 h 5.42033 v -59.71883 h -10.84068 v 59.71883 h -6.75824 v -59.71883 z"
       style="fill:#888888;stroke:none;stroke-width:2.27507663;stroke-miterlimit:4;stroke-dasharray:none;fill-opacity:1" />
    <path
       inkscape:connector-curvature="0"
       id="path985"
       d="m 600.51455,276.22883 v 31.65543 h 5.42034 v 10.84068 h 3.37912 v 28.06289 h 10.84017 v -28.06289 h 3.37912 v -10.84068 h 5.42034 v -31.65543 h -10.84017 v 31.65543 h -6.75824 v -31.65543 z"
       style="fill:#888888;stroke:none;stroke-width:1.65639901;stroke-miterlimit:4;stroke-dasharray:none;fill-opacity:1" />
    <path
       inkscape:connector-curvature="0"
       id="path987"
       d="m 640.07389,276.22883 v 10.84016 h -5.42034 v 20.81527 10.84016 28.06341 h 10.84068 v -28.06341 h 6.75825 v 28.06341 h 10.84016 v -59.71884 h -5.42034 v -10.84016 h -5.41982 -6.75876 z m 5.42034,10.84016 h 6.75825 v 20.81527 h -6.75825 z"
       style="fill:#888888;stroke:none;stroke-width:2.27507663;stroke-miterlimit:4;stroke-dasharray:none;fill-opacity:1" />
    <path
       inkscape:connector-curvature="0"
       id="path989"
       d="m 669.85088,276.22883 v 10.84016 20.81527 10.84016 28.06341 h 10.84017 v -28.06341 h 6.75824 v 5.3e-4 28.06289 h 10.84069 v -28.06342 h -5.42035 v -10.84016 h 5.42035 v -20.81527 h -5.42035 v -10.84016 h -5.42034 -6.75824 z m 10.84017,10.84016 h 6.75824 v 20.81527 h -6.75824 z"
       style="fill:#888888;stroke:none;stroke-width:2.47296095;stroke-miterlimit:4;stroke-dasharray:none;fill-opacity:1" />
    <path
       inkscape:connector-curvature="0"
       id="path991"
       d="m 705.04822,276.22883 v 10.84016 48.87867 10.84017 h 10.84016 6.75825 5.42034 v -10.84017 h 5.41982 v -48.87867 h -5.41982 v -10.84016 h -5.42034 -6.75825 z m 10.84016,10.84016 h 6.75825 v 48.87867 h -6.75825 z"
       style="fill:#888888;stroke:none;stroke-width:2.47296095;stroke-miterlimit:4;stroke-dasharray:none;fill-opacity:1" />
  </g>
</svg>
