<?xml version="1.0" encoding="UTF-8" standalone="no"?>
<!-- Created with Inkscape (http://www.inkscape.org/) -->

<svg
   xmlns:dc="http://purl.org/dc/elements/1.1/"
   xmlns:cc="http://creativecommons.org/ns#"
   xmlns:rdf="http://www.w3.org/1999/02/22-rdf-syntax-ns#"
   xmlns:svg="http://www.w3.org/2000/svg"
   xmlns="http://www.w3.org/2000/svg"
   xmlns:sodipodi="http://sodipodi.sourceforge.net/DTD/sodipodi-0.dtd"
   xmlns:inkscape="http://www.inkscape.org/namespaces/inkscape"
   width="878.50195"
   height="266.68027"
   viewBox="0 0 232.43697 70.559156"
   version="1.1"
   id="svg8"
   inkscape:version="0.92.4 (5da689c313, 2019-01-14)"
   sodipodi:docname="logo.svg"
   inkscape:export-filename="C:\Users\Carl\Documents\outyard.github.io\static\images\icon.png"
   inkscape:export-xdpi="307.64529"
   inkscape:export-ydpi="307.64529">
  <defs
     id="defs2" />
  <sodipodi:namedview
     id="base"
     pagecolor="#ffffff"
     bordercolor="#666666"
     borderopacity="1.0"
     inkscape:pageopacity="0.0"
     inkscape:pageshadow="2"
     inkscape:zoom="1.4"
     inkscape:cx="227.29149"
     inkscape:cy="-152.97413"
     inkscape:document-units="mm"
     inkscape:current-layer="layer1"
     showgrid="false"
     units="px"
     inkscape:window-width="3840"
     inkscape:window-height="2066"
     inkscape:window-x="-11"
     inkscape:window-y="-11"
     inkscape:window-maximized="1"
     inkscape:object-paths="true"
     inkscape:snap-intersection-paths="true"
     inkscape:snap-smooth-nodes="true"
     inkscape:snap-bbox="true"
     inkscape:bbox-paths="true"
     inkscape:snap-bbox-edge-midpoints="true"
     inkscape:bbox-nodes="true"
     inkscape:snap-bbox-midpoints="true" />
  <metadata
     id="metadata5">
    <rdf:RDF>
      <cc:Work
         rdf:about="">
        <dc:format>image/svg+xml</dc:format>
        <dc:type
           rdf:resource="http://purl.org/dc/dcmitype/StillImage" />
        <dc:title></dc:title>
      </cc:Work>
    </rdf:RDF>
  </metadata>
  <g
     inkscape:label="Layer 1"
     inkscape:groupmode="layer"
     id="layer1"
     transform="translate(-207.05334,-276.22882)">
    <rect
       y="276.22882"
       x="283.18375"
       height="70.559151"
       width="10.840377"
       id="rect1110"
       style="fill:#000000;stroke:none;stroke-width:2.47296095;stroke-miterlimit:4;stroke-dasharray:none" />
    <rect
       y="-302.82339"
       x="276.22882"
       height="28.438988"
       width="10.840377"
       id="rect1112"
       style="fill:#000000;stroke:none;stroke-width:1.5699929;stroke-miterlimit:4;stroke-dasharray:none"
       transform="rotate(90)" />
    <path
       style="fill:#000000;stroke:none;stroke-width:7.77922964;stroke-miterlimit:4;stroke-dasharray:none"
       d="m 20.486328,320 v 40.9707 H 0 v 184.73828 h 20.486328 v 40.97071 H 40.970703 66.513672 87 v -40.97071 h 20.48633 V 360.9707 H 87 V 320 H 66.513672 40.970703 Z m 20.484375,40.9707 H 66.513672 V 545.70898 H 40.970703 Z"
       transform="matrix(0.26458333,0,0,0.26458333,207.05334,191.56216)"
       id="rect1114"
       inkscape:connector-curvature="0" />
    <path
       style="fill:#000000;stroke:none;stroke-width:8.59871483;stroke-miterlimit:4;stroke-dasharray:none"
       d="m 133.0293,320 v 225.70898 h 20.48437 v 40.97071 H 174 199.54297 220.0293 v -40.97071 h 20.48632 V 320 H 199.54297 V 545.70898 H 174 V 320 Z"
       transform="matrix(0.26458333,0,0,0.26458333,207.05334,191.56216)"
       id="rect1124"
       inkscape:connector-curvature="0" />
    <path
       style="fill:#000000;stroke:none;stroke-width:6.26040602;stroke-miterlimit:4;stroke-dasharray:none"
       d="m 375.92969,320 v 119.64258 h 20.48633 v 40.97265 h 12.77148 v 106.06446 h 40.9707 V 480.61523 h 12.77149 v -40.97265 h 20.48633 V 320 H 442.44531 V 439.64258 H 416.90234 V 320 Z"
       transform="matrix(0.26458333,0,0,0.26458333,207.05334,191.56216)"
       id="path1130"
       inkscape:connector-curvature="0" />
    <path
       style="fill:#000000;stroke:none;stroke-width:8.59871483;stroke-miterlimit:4;stroke-dasharray:none"
       d="m 525.44531,320 v 40.9707 h -20.48633 v 78.67188 40.9707 106.06641 h 40.97266 V 480.61328 h 25.54297 v 106.06641 h 40.9707 V 360.9707 H 591.95898 V 320 h -20.48437 -25.54492 z m 20.48633,40.9707 h 25.54297 v 78.67188 h -25.54297 z"
       transform="matrix(0.26458333,0,0,0.26458333,207.05334,191.56216)"
       id="rect1136"
       inkscape:connector-curvature="0" />
    <path
       style="fill:#000000;stroke:none;stroke-width:9.34662437;stroke-miterlimit:4;stroke-dasharray:none"
       d="m 637.98828,320 v 40.9707 78.67188 40.9707 106.06641 h 40.9707 V 480.61328 h 25.54297 v 0.002 106.06446 h 40.97266 V 480.61328 h -20.48633 v -40.9707 h 20.48633 V 360.9707 H 724.98828 V 320 h -20.48633 -25.54297 z m 40.9707,40.9707 h 25.54297 v 78.67188 h -25.54297 z"
       transform="matrix(0.26458333,0,0,0.26458333,207.05334,191.56216)"
       id="rect1144"
       inkscape:connector-curvature="0" />
    <path
       style="fill:#000000;stroke:none;stroke-width:9.34662437;stroke-miterlimit:4;stroke-dasharray:none"
       d="m 771.01758,320 v 40.9707 184.73828 40.97071 h 40.9707 25.54297 20.48633 v -40.97071 h 20.48437 V 360.9707 H 858.01758 V 320 h -20.48633 -25.54297 z m 40.9707,40.9707 h 25.54297 v 184.73828 h -25.54297 z"
       transform="matrix(0.26458333,0,0,0.26458333,207.05334,191.56216)"
       id="path1154"
       inkscape:connector-curvature="0" />
  </g>
</svg>
